<svg width="212" height="220" viewBox="0 0 212 220" fill="none" xmlns="http://www.w3.org/2000/svg">
<g clip-path="url(#clip0_1810_769)">
<g opacity="0.2">
<path opacity="0.2" d="M128.683 169.013L92.821 148.299C90.6616 147.058 90.9291 144.89 93.4252 143.457L124.899 131.403C127.376 129.969 131.164 129.817 133.319 131.058L157.418 145.102C159.578 146.338 159.31 148.506 156.814 149.939L137.103 168.658C134.611 170.096 130.842 170.254 128.683 169.013Z" fill="black"/>
</g>
<path d="M128.683 168.961L92.821 148.247C91.8701 147.69 91.3748 146.956 91.3748 146.178V143.483C91.3748 142.543 92.0929 144.173 93.4401 143.4L124.914 131.361C127.39 129.927 131.179 129.775 133.334 131.011L157.433 145.06C158.156 145.474 158.676 143.715 158.864 144.272C158.929 144.459 158.889 146.927 158.894 147.119C158.894 148.104 158.216 149.089 156.829 149.897L137.117 168.616C134.611 170.044 130.842 170.202 128.683 168.961Z" fill="url(#paint0_linear_1810_769)"/>
<path d="M128.683 166.317L92.821 145.628C90.6616 144.387 90.9291 142.219 93.4252 140.786L124.899 128.747C127.376 127.313 131.164 127.16 133.319 128.402L157.418 142.446C159.578 143.682 159.31 145.85 156.814 147.283L137.103 166.002C134.611 167.401 130.842 167.558 128.683 166.317Z" fill="url(#paint1_linear_1810_769)"/>
<path style="mix-blend-mode:multiply" opacity="0.82" d="M157.423 142.422L133.324 128.378C131.164 127.137 127.381 127.29 124.904 128.723L109.056 134.792C109.211 134.917 109.377 135.029 109.551 135.127L145.413 155.846C145.951 156.139 146.531 156.352 147.132 156.476L156.839 147.26C159.315 145.826 159.583 143.659 157.423 142.422Z" fill="url(#paint2_linear_1810_769)"/>
<path style="mix-blend-mode:screen" opacity="0.6" d="M156.819 146.809L137.108 165.528C134.631 166.962 130.842 167.119 128.688 165.878L92.8259 145.164C92.449 144.985 92.1211 144.719 91.8702 144.387C91.6192 144.055 91.4527 143.668 91.3847 143.258C91.2708 144.135 91.7413 144.992 92.8259 145.612L128.688 166.301C130.847 167.543 134.631 167.385 137.108 165.957L156.819 147.238C158.28 146.401 158.968 145.312 158.864 144.282C158.755 145.194 158.062 146.095 156.819 146.809Z" fill="url(#paint3_radial_1810_769)"/>
<path d="M175.535 166.431L87.4622 115.816C82.9553 113.23 79.3052 106.294 79.3052 100.319V33.3261C79.3052 27.3559 82.9553 24.6121 87.4622 27.1933L175.535 77.8125C180.037 80.3987 183.687 87.3344 183.687 93.3047V160.298C183.687 166.273 180.027 169.017 175.535 166.431Z" fill="url(#paint4_linear_1810_769)"/>
<path d="M176.585 161.77L89.7503 111.87C86.125 109.579 83.8864 105.003 83.8864 100.319V32.8822C83.8867 32.6294 83.9539 32.3811 84.0814 32.1623C84.2089 31.9436 84.3922 31.7621 84.6126 31.6362C84.8331 31.5104 85.083 31.4445 85.3373 31.4453C85.5915 31.4461 85.841 31.5136 86.0606 31.6409L86.3182 31.7887L173.242 81.7527C177.556 84.2157 179.106 88.6491 179.106 93.3041V160.529C179.106 160.801 179.035 161.068 178.899 161.303C178.762 161.539 178.567 161.735 178.33 161.872C178.094 162.008 177.826 162.081 177.553 162.082C177.279 162.083 177.011 162.013 176.773 161.878L176.585 161.77Z" fill="url(#paint5_linear_1810_769)"/>
<g style="mix-blend-mode:multiply">
<path d="M173.242 81.7517L86.3182 31.7926L86.0606 31.6448C85.8413 31.5177 85.5923 31.4503 85.3385 31.4492C85.0847 31.4482 84.8351 31.5136 84.6148 31.6389C84.3944 31.7642 84.2111 31.945 84.0833 32.163C83.9554 32.3811 83.8875 32.6288 83.8864 32.8812V100.318C83.8864 105.002 86.125 109.578 89.7503 111.869L176.585 161.769L176.773 161.877C177.011 162.012 177.279 162.082 177.553 162.081C177.826 162.08 178.094 162.007 178.33 161.871C178.567 161.734 178.762 161.538 178.899 161.302C179.035 161.067 179.106 160.8 179.106 160.528V93.3031C179.106 88.6234 177.551 84.2245 173.242 81.7517ZM178.195 160.528C178.195 160.698 178.127 160.86 178.006 160.981C177.885 161.101 177.722 161.168 177.551 161.168C177.439 161.17 177.33 161.141 177.234 161.084L90.2109 111.081C86.9372 109.012 84.8027 104.781 84.8027 100.318V32.8812C84.8039 32.7418 84.8602 32.6085 84.9593 32.5099C85.0584 32.4114 85.1924 32.3554 85.3326 32.3541C85.427 32.3529 85.5198 32.3785 85.6 32.428L172.767 82.5349C177.224 85.1014 178.17 89.8056 178.17 93.2982L178.195 160.528Z" fill="#BCBEC0"/>
</g>
<path d="M177.843 76.5906L89.7702 25.9862C87.9872 24.9616 86.3429 24.7744 85.0008 25.2867C84.8274 25.3557 82.5542 26.5527 82.3957 26.6413C83.7874 25.9665 85.5505 26.0896 87.4721 27.193L175.535 77.8123C180.037 80.3984 183.687 87.3342 183.687 93.3044V160.298C183.687 164.022 182.266 166.494 180.101 167.194C180.357 167.183 180.605 167.099 180.815 166.953C180.919 166.893 183.385 165.509 183.484 165.44C185.034 164.362 186 162.145 186 159.076V92.0828C186 86.1125 182.35 79.1866 177.843 76.5906Z" fill="url(#paint6_linear_1810_769)"/>
<path style="mix-blend-mode:screen" opacity="0.6" d="M175.926 77.614L87.8535 26.9997C86.0062 25.9406 84.3074 25.7879 82.9405 26.3741C84.3182 26.2215 85.7067 26.545 86.8729 27.2904L174.946 77.9096C179.448 80.4957 183.103 87.4315 183.103 93.4017V160.395C183.103 163.917 181.825 166.306 179.859 167.148C182.375 166.749 184.078 164.193 184.078 160.099V93.1062C184.078 87.1408 180.428 80.2002 175.926 77.614Z" fill="url(#paint7_radial_1810_769)"/>
<g opacity="0.9">
<path opacity="0.9" d="M84.8373 109.726V120.465L89.3195 117.889V107.066L84.8373 109.726Z" fill="url(#paint8_linear_1810_769)"/>
<path opacity="0.9" d="M84.8473 109.724V120.463L74.9667 114.783V103.961L84.8473 109.724Z" fill="url(#paint9_linear_1810_769)"/>
<path opacity="0.9" d="M74.9667 103.962L84.8473 109.726L89.3195 107.066L79.4192 101.332L74.9667 103.962Z" fill="url(#paint10_linear_1810_769)"/>
</g>
<g opacity="0.9">
<path opacity="0.9" d="M84.8373 95.6991V106.433L89.3195 103.856V93.0391L84.8373 95.6991Z" fill="url(#paint11_linear_1810_769)"/>
<path opacity="0.9" d="M84.8473 95.697V106.431L74.9667 100.751V89.9336L84.8473 95.697Z" fill="url(#paint12_linear_1810_769)"/>
<path opacity="0.9" d="M74.9667 89.9352L84.8473 95.6985L89.3195 93.0385L79.4192 87.3047L74.9667 89.9352Z" fill="url(#paint13_linear_1810_769)"/>
</g>
<g opacity="0.9">
<path opacity="0.9" d="M84.8373 81.535V92.2687L89.3195 89.6924V78.875L84.8373 81.535Z" fill="url(#paint14_linear_1810_769)"/>
<path opacity="0.9" d="M84.8473 81.5329V92.2666L74.9667 86.587V75.7695L84.8473 81.5329Z" fill="url(#paint15_linear_1810_769)"/>
<path opacity="0.9" d="M74.9667 75.7711L84.8473 81.5345L89.3195 78.8744L79.4192 73.1406L74.9667 75.7711Z" fill="url(#paint16_linear_1810_769)"/>
</g>
<path d="M82.6285 88.9434L77.1013 85.7711V79.4609L82.6285 82.6333V88.9434Z" fill="white"/>
<path d="M83.1633 100.019C83.1633 101.989 81.7865 102.748 80.0828 101.767C79.189 101.188 78.4452 100.406 77.9117 99.4871C77.3782 98.568 77.07 97.5366 77.0121 96.4768C77.0121 94.536 78.3939 93.7528 80.0976 94.7281C80.99 95.3091 81.7324 96.0906 82.2649 97.0097C82.7975 97.9287 83.1052 98.9594 83.1633 100.019V100.019Z" fill="white"/>
<path d="M78.181 114.754L76.4426 110.325L78.181 107.887L81.6528 109.882L83.3912 114.315L81.6528 116.749L78.181 114.754Z" fill="white"/>
<g opacity="0.9">
<path opacity="0.9" d="M167.67 138.754V149.487L172.152 146.911V136.094L167.67 138.754Z" fill="url(#paint17_linear_1810_769)"/>
<path opacity="0.9" d="M167.68 138.752V149.485L157.8 143.811V132.988L167.68 138.752Z" fill="url(#paint18_linear_1810_769)"/>
<path opacity="0.9" d="M157.8 132.99L167.68 138.753L172.152 136.093L162.252 130.359L157.8 132.99Z" fill="url(#paint19_linear_1810_769)"/>
</g>
<g opacity="0.9">
<path opacity="0.9" d="M167.67 119.418V130.152L172.152 127.575V116.758L167.67 119.418Z" fill="url(#paint20_linear_1810_769)"/>
<path opacity="0.9" d="M167.68 119.416V130.149L157.8 124.475V113.652L167.68 119.416Z" fill="url(#paint21_linear_1810_769)"/>
<path opacity="0.9" d="M157.8 113.654L167.68 119.417L172.152 116.757L162.252 111.023L157.8 113.654Z" fill="url(#paint22_linear_1810_769)"/>
</g>
<g opacity="0.9">
<path opacity="0.9" d="M167.67 105.019V115.758L172.152 113.182V102.359L167.67 105.019Z" fill="url(#paint23_linear_1810_769)"/>
<path opacity="0.9" d="M167.68 105.017V115.756L157.8 110.076V99.2539L167.68 105.017Z" fill="url(#paint24_linear_1810_769)"/>
<path opacity="0.9" d="M157.8 99.2555L167.68 105.019L172.152 102.359L162.252 96.625L157.8 99.2555Z" fill="url(#paint25_linear_1810_769)"/>
</g>
<g opacity="0.9">
<path opacity="0.9" d="M167.67 90.2811V101.015L172.152 98.4385V87.6211L167.67 90.2811Z" fill="url(#paint26_linear_1810_769)"/>
<path opacity="0.9" d="M167.68 90.279V101.013L157.8 95.3331V84.5156L167.68 90.279Z" fill="url(#paint27_linear_1810_769)"/>
<path opacity="0.9" d="M157.8 84.5172L167.68 90.2806L172.152 87.6205L162.252 81.8867L157.8 84.5172Z" fill="url(#paint28_linear_1810_769)"/>
</g>
<path d="M164.813 104.207L159.612 107.163L158.968 109.985L161.742 110.813L166.942 107.857L164.813 104.207ZM159.647 108.877L159.919 107.68L161.44 110.291L160.261 109.936L159.647 108.877ZM160.142 107.453L163.54 105.527L165.149 108.296L161.742 110.222L160.142 107.453Z" fill="white"/>
<path d="M164.07 96.2649L165.11 94.2945L166.526 93.4915L164.233 89.5508L162.817 90.3537L160.563 90.2453C160.553 90.244 160.542 90.2447 160.532 90.2474C160.522 90.2501 160.512 90.2548 160.504 90.2613C160.496 90.2677 160.489 90.2757 160.484 90.2848C160.479 90.2939 160.475 90.3039 160.474 90.3143L159.236 94.4965C159.228 94.5408 159.23 94.5864 159.242 94.6299C159.254 94.6734 159.275 94.7137 159.305 94.7477C159.37 94.8265 159.449 94.8659 159.503 94.8413L159.593 94.8019L159.508 94.856C159.486 94.888 159.475 94.9257 159.475 94.9644C159.475 95.0031 159.486 95.0409 159.508 95.0728C159.507 95.0875 159.507 95.1024 159.508 95.1171C159.541 95.1817 159.598 95.2311 159.667 95.255L163.956 96.3092C163.966 96.3141 163.977 96.3168 163.989 96.3171C164 96.3175 164.012 96.3156 164.022 96.3114C164.033 96.3073 164.043 96.301 164.051 96.293C164.059 96.285 164.065 96.2754 164.07 96.2649V96.2649ZM160.137 94.9792L161.648 93.9398C161.861 94.1713 162.118 94.2846 162.297 94.1861C162.475 94.0876 162.515 93.6492 162.297 93.2699C162.079 92.8906 161.712 92.6788 161.489 92.8068C161.267 92.9349 161.281 93.1812 161.38 93.4817L159.721 94.2452L160.781 90.669L162.822 90.7675L164.758 94.0925L163.822 95.8806L160.137 94.9792Z" fill="white"/>
<path d="M165.169 123.297L164.322 121.819C164.737 121.735 165.166 121.748 165.575 121.858C165.741 121.903 165.918 121.883 166.071 121.804C166.62 121.489 166.541 120.376 165.838 119.469C165.701 119.252 165.513 119.072 165.29 118.943C165.068 118.815 164.817 118.742 164.56 118.73C164.435 118.746 164.318 118.798 164.223 118.879C164.128 118.961 164.059 119.068 164.025 119.189C163.904 119.595 163.694 119.97 163.411 120.287L162.574 118.844L161.742 119.312L162.123 119.972L159.721 121.356C159.57 121.456 159.446 121.591 159.359 121.75C159.273 121.909 159.227 122.087 159.226 122.267L159.162 123.011C159.162 123.049 159.15 123.085 159.127 123.115L158.81 123.548C158.781 123.609 158.769 123.676 158.776 123.743C158.783 123.81 158.808 123.874 158.85 123.927C158.929 124.065 159.053 124.169 159.172 124.154L159.667 124.09C159.703 124.081 159.74 124.081 159.776 124.09L160.524 124.435C160.68 124.521 160.854 124.568 161.033 124.573C161.211 124.578 161.388 124.541 161.549 124.464L163.971 123.09L164.352 123.745L165.169 123.297ZM161.291 124.06C161.166 124.124 161.026 124.158 160.885 124.158C160.744 124.158 160.605 124.124 160.479 124.06L159.731 123.716C159.651 123.678 159.562 123.663 159.474 123.671H159.315L159.444 123.499C159.492 123.425 159.521 123.34 159.528 123.253L159.588 122.509C159.587 122.366 159.622 122.226 159.69 122.101C159.757 121.975 159.855 121.868 159.974 121.789L162.386 120.42L163.713 122.691L161.291 124.06Z" fill="white"/>
<path d="M165.729 145.499L164.307 143.036C164.258 142.928 164.181 142.835 164.085 142.765C163.989 142.695 163.876 142.651 163.758 142.637L163.337 141.923C163.966 141.342 163.901 139.952 163.148 138.667C162.326 137.258 160.994 136.49 160.177 136.957C159.36 137.425 159.355 138.928 160.177 140.356C160.93 141.647 162.108 142.396 162.935 142.154L163.352 142.869C163.302 142.976 163.282 143.095 163.295 143.213C163.307 143.331 163.35 143.443 163.421 143.539L164.842 145.977C165.021 146.282 165.313 146.47 165.491 146.351L165.734 146.213C165.907 146.135 165.907 145.805 165.729 145.499ZM162.643 141.218C162.098 141.524 161.222 141.021 160.662 140.09C160.103 139.159 160.122 138.159 160.662 137.854C161.202 137.549 162.084 138.051 162.643 138.977C163.203 139.903 163.188 140.913 162.643 141.218Z" fill="white"/>
<path d="M97.3031 188.993L54.8986 158.713L67.7953 152.777L110.2 183.052L97.3031 188.993Z" fill="url(#paint29_linear_1810_769)"/>
<path d="M65.2199 164.446L60.4307 161.022L70.5391 156.367L75.3283 159.791L65.2199 164.446Z" fill="#138BBD"/>
<path d="M71.4949 168.926L66.7057 165.503L76.8141 160.848L81.6033 164.271L71.4949 168.926Z" fill="#18A0CA"/>
<path d="M77.7699 173.406L72.9807 169.987L83.089 165.332L87.8783 168.751L77.7699 173.406Z" fill="#1CB6D7"/>
<path d="M84.0449 177.89L79.2557 174.471L89.364 169.816L94.1532 173.235L84.0449 177.89Z" fill="#21CBE5"/>
<path d="M90.3249 182.371L85.5307 178.952L95.644 174.297L100.428 177.716L90.3249 182.371Z" fill="#25E1F2"/>
<path d="M96.5999 186.855L91.8107 183.436L101.919 178.781L106.708 182.2L96.5999 186.855Z" fill="#2AF6FF"/>
<path style="mix-blend-mode:multiply" d="M97.3031 188.993L54.8986 158.713L67.7953 152.777L100.894 187.338L97.3031 188.993Z" fill="url(#paint30_linear_1810_769)"/>
<path d="M84.8571 191.483L52.9473 157.242L67.5526 152.789L99.4674 187.029L84.8571 191.483Z" fill="url(#paint31_linear_1810_769)"/>
<path d="M61.238 163.968L57.6375 160.101L69.088 156.613L72.6885 160.48L61.238 163.968Z" fill="#9F19AB"/>
<path d="M65.9628 169.035L62.3573 165.168L73.8078 161.676L77.4133 165.548L65.9628 169.035Z" fill="#B228B2"/>
<path d="M70.6876 174.106L67.0821 170.239L78.5326 166.746L82.1381 170.618L70.6876 174.106Z" fill="#C537B9"/>
<path d="M75.4125 179.172L71.8069 175.305L83.2575 171.812L86.863 175.679L75.4125 179.172Z" fill="#D945C0"/>
<path d="M80.1323 184.242L76.5317 180.375L87.9773 176.883L91.5828 180.75L80.1323 184.242Z" fill="#EC54C7"/>
<path d="M84.8572 189.313L81.2516 185.441L92.7021 181.953L96.3077 185.82L84.8572 189.313Z" fill="#FF63CE"/>
<path style="mix-blend-mode:multiply" d="M84.8571 191.483L52.9473 157.242L67.5526 152.789L89.3789 190.167L84.8571 191.483Z" fill="url(#paint32_linear_1810_769)"/>
<path d="M72.0843 192.877L51.4764 155.922L67.2654 153.07L87.8733 190.025L72.0843 192.877Z" fill="url(#paint33_linear_1810_769)"/>
<path d="M57.5186 163.389L55.1909 159.217L67.5675 156.98L69.8952 161.153L57.5186 163.389Z" fill="#FFBA78"/>
<path d="M60.5694 168.866L58.2416 164.688L70.6183 162.457L72.946 166.629L60.5694 168.866Z" fill="#FFC281"/>
<path d="M63.6202 174.331L61.2925 170.158L73.6691 167.922L75.9969 172.099L63.6202 174.331Z" fill="#FFCB8B"/>
<path d="M66.6711 179.803L64.3433 175.631L76.72 173.395L79.0477 177.567L66.6711 179.803Z" fill="#FFD394"/>
<path d="M69.7218 185.272L67.3941 181.1L79.7708 178.863L82.0985 183.036L69.7218 185.272Z" fill="#FFDC9E"/>
<path d="M72.7727 190.745L70.4449 186.572L82.8216 184.336L85.1493 188.508L72.7727 190.745Z" fill="#FFE4A7"/>
<g opacity="0.2">
<path opacity="0.09" d="M54.1557 134.064C55.8872 133.115 57.9071 132.828 59.8364 133.256C60.4293 133.401 61.0004 133.623 61.5352 133.916L105.539 159.073C106.094 159.353 106.556 159.785 106.87 160.319C107.184 160.852 107.338 161.465 107.312 162.083C107.289 162.385 107.227 162.682 107.129 162.969C106.69 164.007 105.91 164.865 104.915 165.403L80.0878 179.634C79.769 179.82 79.4381 179.984 79.0972 180.126C78.1485 180.489 77.142 180.679 76.1256 180.688C74.9716 180.723 73.8287 180.454 72.8123 179.91L28.6298 154.669C28.0735 154.39 27.6103 153.957 27.2965 153.422C26.9827 152.887 26.8316 152.273 26.8617 151.654C26.88 151.4 26.9231 151.147 26.9905 150.901C27.41 149.801 28.2134 148.888 29.2539 148.329L54.1557 134.064Z" fill="black"/>
<path opacity="0.18" d="M54.2944 134.144C55.5327 133.463 56.9312 133.123 58.3457 133.159C58.8889 133.176 59.4286 133.252 59.9553 133.385C60.5494 133.547 61.1215 133.781 61.659 134.08L105.525 159.158C106.066 159.428 106.511 159.855 106.802 160.383C107.092 160.911 107.213 161.515 107.149 162.114C107.102 162.402 107.024 162.684 106.916 162.956C106.416 163.939 105.634 164.752 104.668 165.291L80.1522 179.35C79.8316 179.532 79.5009 179.697 79.1616 179.842C78.2146 180.213 77.2078 180.41 76.1901 180.423C75.0525 180.466 73.9241 180.206 72.9213 179.67L28.7685 154.444C28.2216 154.174 27.7727 153.742 27.4843 153.207C27.1958 152.672 27.0821 152.061 27.1589 151.459C27.1994 151.214 27.2624 150.973 27.3471 150.74C27.6146 149.897 28.6942 148.823 29.66 148.277L54.2944 134.144Z" fill="black"/>
<path opacity="0.27" d="M54.4381 134.229C55.6711 133.553 57.0677 133.227 58.4745 133.288C59.0154 133.313 59.5519 133.398 60.0742 133.54C60.6519 133.715 61.2096 133.949 61.7383 134.239L105.465 159.239C106.008 159.496 106.449 159.927 106.718 160.463C106.987 160.998 107.069 161.607 106.951 162.194C106.881 162.47 106.787 162.738 106.669 162.997C106.391 163.692 105.213 164.765 104.39 165.233L80.1819 179.115C79.8606 179.296 79.53 179.461 79.1914 179.607C78.2646 179.979 77.2783 180.183 76.2792 180.208C75.1543 180.251 74.0387 179.99 73.0501 179.455L28.9072 154.219C28.3672 153.959 27.9305 153.527 27.6673 152.991C27.4041 152.455 27.3297 151.846 27.4561 151.263C27.5203 151.031 27.598 150.802 27.6889 150.579C27.9563 149.84 29.1746 148.702 30.0513 148.209L54.4381 134.229Z" fill="black"/>
<path opacity="0.36" d="M54.5767 134.306C55.4203 133.835 56.3499 133.537 57.311 133.429C58.272 133.32 59.2452 133.404 60.1732 133.675C60.7409 133.868 61.291 134.108 61.8175 134.394L105.401 159.315C106.604 160.009 107.045 161.103 106.723 162.221C106.632 162.483 106.523 162.738 106.396 162.985C106.129 163.586 104.801 164.714 104.083 165.127L80.1819 178.827C79.9788 178.945 79.4489 179.216 79.2211 179.319C78.3128 179.698 77.3427 179.908 76.3584 179.94C75.2497 179.997 74.1461 179.755 73.164 179.24L29.0459 153.995C27.8325 153.295 27.4065 152.187 27.7532 151.039C27.8226 150.818 27.9365 150.611 28.0306 150.389C28.2881 149.754 29.6897 148.547 30.4376 148.118L54.5767 134.306Z" fill="black"/>
<path opacity="0.45" d="M54.7253 134.385C55.9555 133.72 57.3496 133.414 58.7468 133.503C59.2817 133.549 59.8099 133.653 60.3218 133.814C60.8816 134.024 61.4261 134.272 61.9512 134.558L105.401 159.394C106.599 160.084 106.976 161.177 106.57 162.266C106.458 162.514 106.332 162.756 106.193 162.99C105.946 163.483 104.465 164.68 103.851 165.034L80.2562 178.556C80.0828 178.66 79.5034 178.96 79.3102 179.049C78.4173 179.429 77.4626 179.646 76.4921 179.689C75.3999 179.754 74.3107 179.521 73.3423 179.014L29.1895 153.769C27.981 153.074 27.6096 151.961 28.0504 150.867C28.133 150.65 28.241 150.444 28.3723 150.252C28.5159 149.68 30.185 148.449 30.8486 148.079L54.7253 134.385Z" fill="black"/>
<path opacity="0.55" d="M54.8541 134.464C56.0819 133.799 57.4771 133.503 58.8707 133.612C59.3999 133.668 59.9214 133.782 60.4258 133.952C60.9782 134.175 61.5172 134.43 62.0403 134.715L105.351 159.478C106.55 160.163 106.867 161.251 106.371 162.31C106.261 162.555 106.119 162.786 105.95 162.995C105.817 163.443 104.083 164.645 103.568 164.941L80.2908 178.285C80.1472 178.369 79.5232 178.704 79.3597 178.778C78.4827 179.161 77.543 179.383 76.5862 179.433C75.5091 179.505 74.4329 179.28 73.476 178.783L29.3281 153.567C28.1148 152.867 27.8126 151.764 28.3376 150.695C28.4376 150.488 28.5606 150.293 28.7041 150.114C28.823 149.621 30.6852 148.35 31.2102 148.04L54.8541 134.464Z" fill="black"/>
<path opacity="0.64" d="M54.9977 134.547C56.2202 133.884 57.6126 133.596 58.9994 133.719C59.5267 133.785 60.045 133.909 60.5446 134.089C60.7725 134.158 61.9561 134.768 62.1443 134.872L105.312 159.556C106.505 160.241 106.797 161.324 106.188 162.354C106.051 162.587 105.885 162.803 105.693 162.994C105.589 163.359 103.712 164.61 103.281 164.846L80.3057 178.013C80.1918 178.082 79.5232 178.447 79.3944 178.506C78.5325 178.891 77.6083 179.12 76.6655 179.181C75.6018 179.261 74.5367 179.044 73.5899 178.555L29.4668 153.315C28.2534 152.62 28.0107 151.512 28.6447 150.472C28.7602 150.275 28.8981 150.092 29.0558 149.926C29.1499 149.541 31.1804 148.197 31.6064 147.955L54.9977 134.547Z" fill="black"/>
<path opacity="0.73" d="M55.1363 134.626C55.967 134.145 56.8972 133.859 57.8559 133.79C58.8147 133.721 59.7767 133.87 60.6684 134.227C60.8368 134.282 62.1097 134.956 62.2483 135.035L105.282 159.636C106.47 160.32 106.683 161.404 106.005 162.399C105.859 162.621 105.684 162.823 105.485 163C105.406 163.271 103.345 164.576 103.038 164.754L80.37 177.748C80.2809 177.798 79.5677 178.192 79.4736 178.241C78.6277 178.63 77.7186 178.865 76.7893 178.935C75.7407 179.022 74.6886 178.814 73.7533 178.334L29.6104 153.074C28.397 152.38 28.2088 151.266 28.9418 150.261C29.0754 150.081 29.2282 149.916 29.3975 149.769C29.4668 149.483 31.6757 148.079 31.9976 147.897L55.1363 134.626Z" fill="black"/>
<path opacity="0.82" d="M55.275 134.705C56.1028 134.225 57.0313 133.944 57.9872 133.884C58.9431 133.823 59.9001 133.984 60.7824 134.355C60.8963 134.395 62.2682 135.128 62.3425 135.183L105.242 159.714C106.431 160.394 106.589 161.482 105.817 162.448C105.65 162.655 105.458 162.842 105.247 163.005C105.193 163.187 102.974 164.541 102.771 164.66L80.4147 177.467C80.3552 177.502 79.5975 177.925 79.5331 177.96C78.7042 178.356 77.8096 178.598 76.8933 178.674C75.8678 178.767 74.8369 178.567 73.9217 178.098L29.7491 152.862C28.5407 152.167 28.402 151.049 29.2539 150.079C29.401 149.898 29.567 149.733 29.7491 149.586C29.7937 149.394 32.1809 147.936 32.3938 147.813L55.275 134.705Z" fill="black"/>
<path opacity="0.91" d="M55.4187 134.786C56.6299 134.136 58.0154 133.88 59.3808 134.052C59.8917 134.147 60.3901 134.299 60.8666 134.506C60.926 134.506 62.3524 135.328 62.4118 135.353L105.168 159.8C106.347 160.475 106.461 161.569 105.589 162.495C105.404 162.689 105.198 162.863 104.975 163.012C104.945 163.101 102.563 164.49 102.459 164.569L80.4444 177.214L79.5776 177.706C78.7642 178.099 77.8873 178.346 76.9874 178.435C75.9646 178.542 74.9326 178.352 74.0158 177.889L29.8878 152.643C28.6794 151.948 28.5952 150.82 29.5362 149.884C29.7017 149.718 29.8843 149.57 30.081 149.441C30.081 149.343 32.6662 147.83 32.7752 147.766L55.4187 134.786Z" fill="black"/>
<path opacity="0.2" d="M74.1693 177.651L30.0265 152.415C28.6298 151.608 28.8032 150.204 30.4227 149.278L55.5573 134.849C57.1719 133.918 59.6185 133.815 61.0052 134.623L105.148 159.858C106.55 160.661 106.376 162.065 104.757 162.996L79.6371 177.424C78.0027 178.356 75.5709 178.454 74.1693 177.651Z" fill="black"/>
</g>
<path d="M80.3008 177.362L105.163 163.111C106.154 162.544 106.649 161.786 106.649 160.988C106.649 160.919 106.649 159.387 106.649 159.318C106.565 158.397 105.856 158.904 104.539 158.145L61.0003 133.176C58.4447 131.698 54.5619 131.545 52.358 132.821L27.4858 147.072C26.4953 147.638 26 146.638 26 147.431C26 147.505 26 149.328 26 149.402C26.0792 150.328 26.7875 151.284 28.1049 152.037L71.6485 177.012C74.2189 178.475 78.0869 178.633 80.3008 177.362Z" fill="url(#paint34_linear_1810_769)"/>
<path d="M80.3007 175.688L105.163 161.452C107.382 160.181 107.104 157.959 104.544 156.491L61.0003 131.502C58.4447 130.024 54.5618 129.876 52.3579 131.147L27.4857 145.398C25.2818 146.674 25.5592 148.891 28.1147 150.358L71.6584 175.333C74.2189 176.801 78.0869 176.959 80.3007 175.688Z" fill="url(#paint35_linear_1810_769)"/>
<path style="mix-blend-mode:color-dodge" d="M105.163 161.219L80.3007 175.47C78.0869 176.741 74.2189 176.578 71.6584 175.111L28.1147 150.121C26.7676 149.367 26.0545 148.387 26 147.441C25.9455 148.451 26.6587 149.525 28.1098 150.358L71.6534 175.332C74.2139 176.81 78.0918 176.958 80.2958 175.687L105.163 161.451C106.213 160.85 106.703 160.032 106.649 159.185C106.614 159.939 106.124 160.668 105.163 161.219Z" fill="url(#paint36_radial_1810_769)"/>
<path d="M103.127 157.184L59.7621 132.313C57.8851 131.234 55.0422 131.121 53.4178 132.052L29.0755 146.002C27.4511 146.938 27.6541 148.568 29.5312 149.647L72.9015 174.518C74.7785 175.597 77.6164 175.71 79.2408 174.779L103.583 160.829C105.208 159.893 105.004 158.263 103.127 157.184Z" fill="#1F0D3D"/>
<path d="M98.4819 154.967L59.1133 132.386C58.2566 131.955 57.3099 131.73 56.3498 131.73C55.3896 131.73 54.4429 131.955 53.5862 132.386L29.6848 146.1C28.1544 146.977 28.1445 148.401 29.6848 149.277L69.0434 171.848L98.4819 154.967Z" fill="url(#paint37_linear_1810_769)"/>
<path d="M95.6539 168.414L92.1425 170.433C92.1462 170.109 92.2272 169.79 92.3787 169.502C92.5302 169.214 92.7479 168.966 93.0141 168.778L94.7822 167.759C95.2775 167.483 95.6539 167.759 95.6539 168.414V168.414Z" fill="black"/>
<path style="mix-blend-mode:color-dodge" d="M83.1039 173.676C84.8472 177.903 83.3168 182.543 79.6816 184.021C76.0464 185.498 71.6881 183.287 69.9398 179.06C68.1915 174.834 69.7268 170.193 73.362 168.716C76.9973 167.238 81.3556 169.455 83.1039 173.676Z" fill="url(#paint38_radial_1810_769)"/>
<path d="M30.6753 149.241C30.6542 149.241 30.6335 149.235 30.6152 149.225C30.597 149.215 30.5818 149.2 30.5713 149.181C30.555 149.153 30.5506 149.12 30.5589 149.089C30.5673 149.057 30.5877 149.03 30.6158 149.014L31.7847 148.329C31.8137 148.313 31.848 148.308 31.8803 148.317C31.9127 148.325 31.9405 148.345 31.958 148.374C31.9742 148.402 31.9787 148.435 31.9703 148.466C31.962 148.498 31.9415 148.525 31.9134 148.541L30.7397 149.226C30.7197 149.236 30.6976 149.241 30.6753 149.241V149.241Z" fill="#25054D"/>
<path d="M34.0332 151.158C34.0118 151.16 33.9904 151.156 33.9712 151.146C33.952 151.137 33.9358 151.122 33.9242 151.104C33.9077 151.075 33.9032 151.041 33.9115 151.009C33.9198 150.977 33.9403 150.949 33.9688 150.932L35.1376 150.247C35.1667 150.231 35.201 150.226 35.2333 150.235C35.2656 150.243 35.2935 150.263 35.311 150.292C35.3272 150.32 35.3316 150.353 35.3233 150.384C35.3149 150.416 35.2945 150.443 35.2664 150.459L34.0926 151.149C34.0738 151.156 34.0535 151.16 34.0332 151.158V151.158Z" fill="#25054D"/>
<path d="M37.3911 153.076C37.37 153.077 37.3493 153.071 37.331 153.061C37.3127 153.051 37.2976 153.035 37.2871 153.017C37.2704 152.99 37.2652 152.957 37.2726 152.926C37.28 152.894 37.2994 152.867 37.3267 152.85L38.5004 152.165C38.5295 152.149 38.5638 152.144 38.5961 152.152C38.6285 152.161 38.6563 152.181 38.6738 152.209C38.69 152.238 38.6945 152.271 38.6861 152.302C38.6778 152.334 38.6573 152.361 38.6292 152.377L37.4554 153.076C37.4342 153.081 37.4123 153.081 37.3911 153.076V153.076Z" fill="#25054D"/>
<path d="M40.7489 154.995C40.7272 154.995 40.7059 154.99 40.6868 154.98C40.6678 154.969 40.6517 154.954 40.64 154.936C40.6235 154.907 40.6189 154.873 40.6272 154.841C40.6355 154.809 40.6561 154.781 40.6846 154.764L41.8484 154.059C41.8767 154.043 41.9103 154.039 41.9418 154.047C41.9733 154.055 42.0003 154.076 42.0168 154.104C42.0338 154.132 42.0391 154.166 42.0317 154.198C42.0243 154.23 42.0048 154.258 41.9772 154.276L40.8034 154.961C40.7879 154.976 40.7693 154.988 40.7489 154.995V154.995Z" fill="#25054D"/>
<path d="M44.1069 156.917C44.0847 156.917 44.063 156.91 44.0439 156.899C44.0248 156.888 44.009 156.872 43.9979 156.853C43.9817 156.825 43.9772 156.791 43.9856 156.76C43.9939 156.729 44.0144 156.702 44.0425 156.685L45.2162 156.001C45.2445 155.985 45.2781 155.98 45.3096 155.988C45.3411 155.997 45.3681 156.017 45.3846 156.045C45.4013 156.073 45.4065 156.106 45.3991 156.137C45.3917 156.168 45.3723 156.195 45.345 156.213L44.1712 156.897C44.1514 156.908 44.1295 156.915 44.1069 156.917Z" fill="#25054D"/>
<path d="M47.4647 158.835C47.4429 158.835 47.4214 158.83 47.4022 158.82C47.3831 158.81 47.3671 158.794 47.3557 158.776C47.3392 158.747 47.3347 158.713 47.343 158.681C47.3513 158.648 47.3719 158.621 47.4003 158.603L48.5741 157.919C48.6024 157.903 48.6359 157.898 48.6674 157.906C48.699 157.915 48.7259 157.935 48.7425 157.963C48.759 157.992 48.7635 158.026 48.7552 158.058C48.7469 158.09 48.7264 158.118 48.6979 158.135L47.5291 158.82C47.509 158.83 47.487 158.835 47.4647 158.835V158.835Z" fill="#25054D"/>
<path d="M50.8226 160.756C50.8004 160.756 50.7788 160.75 50.7597 160.738C50.7406 160.727 50.7247 160.711 50.7137 160.692C50.6974 160.664 50.693 160.631 50.7013 160.599C50.7097 160.568 50.7301 160.541 50.7582 160.525L51.932 159.84C51.946 159.83 51.962 159.823 51.979 159.819C51.9959 159.816 52.0134 159.815 52.0304 159.819C52.0473 159.823 52.0633 159.83 52.0774 159.84C52.0914 159.85 52.1032 159.863 52.1119 159.878C52.1206 159.893 52.126 159.909 52.1279 159.926C52.1298 159.943 52.128 159.961 52.1228 159.977C52.1175 159.994 52.1088 160.009 52.0973 160.022C52.0857 160.034 52.0716 160.045 52.0558 160.052L50.887 160.736C50.8682 160.75 50.8456 160.757 50.8226 160.756Z" fill="#25054D"/>
<path d="M54.1805 162.671C54.1587 162.671 54.1372 162.666 54.1181 162.656C54.0989 162.646 54.0829 162.63 54.0716 162.612C54.0553 162.584 54.0509 162.55 54.0592 162.519C54.0676 162.488 54.088 162.461 54.1161 162.444L55.2899 161.755C55.3182 161.738 55.3517 161.734 55.3833 161.742C55.4148 161.751 55.4418 161.771 55.4583 161.799C55.4748 161.828 55.4794 161.862 55.4711 161.894C55.4627 161.926 55.4422 161.954 55.4137 161.971L54.2301 162.656C54.2147 162.664 54.1978 162.669 54.1805 162.671V162.671Z" fill="#25054D"/>
<path d="M57.5384 164.591C57.5162 164.591 57.4945 164.585 57.4754 164.573C57.4564 164.562 57.4405 164.546 57.4294 164.527C57.4132 164.499 57.4087 164.466 57.4171 164.434C57.4254 164.403 57.4459 164.376 57.474 164.36L58.6478 163.675C58.6757 163.662 58.7073 163.661 58.7365 163.67C58.7657 163.679 58.7904 163.699 58.8058 163.725C58.8212 163.752 58.8262 163.783 58.8199 163.813C58.8136 163.842 58.7964 163.869 58.7716 163.887L57.5978 164.572C57.5808 164.585 57.5599 164.592 57.5384 164.591V164.591Z" fill="#25054D"/>
<path d="M60.8963 166.509C60.8745 166.51 60.853 166.504 60.8338 166.494C60.8147 166.484 60.7987 166.468 60.7873 166.45C60.7711 166.422 60.7667 166.388 60.775 166.357C60.7833 166.326 60.8038 166.299 60.8319 166.282L62.0057 165.598C62.0192 165.589 62.0344 165.583 62.0503 165.58C62.0663 165.577 62.0827 165.578 62.0984 165.581C62.1142 165.585 62.129 165.592 62.142 165.601C62.1551 165.611 62.166 165.623 62.1741 165.637C62.1906 165.666 62.1951 165.7 62.1868 165.732C62.1785 165.764 62.1579 165.792 62.1295 165.81L60.9557 166.494L60.8963 166.509Z" fill="#25054D"/>
<path d="M64.2542 168.432C64.2282 168.432 64.2029 168.424 64.1817 168.409C64.1605 168.394 64.1443 168.373 64.1353 168.348C64.119 168.32 64.1146 168.287 64.123 168.256C64.1313 168.224 64.1518 168.197 64.1799 168.181L65.3536 167.496C65.3676 167.486 65.3836 167.479 65.4006 167.475C65.4175 167.472 65.435 167.472 65.452 167.475C65.4689 167.479 65.485 167.486 65.499 167.496C65.513 167.506 65.5248 167.519 65.5335 167.534C65.5422 167.549 65.5477 167.565 65.5496 167.582C65.5514 167.6 65.5497 167.617 65.5444 167.633C65.5391 167.65 65.5304 167.665 65.5189 167.678C65.5074 167.691 65.4932 167.701 65.4775 167.708L64.3037 168.393C64.2923 168.411 64.2747 168.425 64.2542 168.432Z" fill="#25054D"/>
<path d="M67.6022 170.348C67.5804 170.349 67.5588 170.343 67.5397 170.333C67.5206 170.323 67.5045 170.307 67.4932 170.289C67.477 170.261 67.4725 170.227 67.4809 170.196C67.4892 170.165 67.5097 170.138 67.5378 170.121L68.7116 169.437C68.7395 169.424 68.7711 169.422 68.8003 169.432C68.8295 169.441 68.8542 169.461 68.8696 169.487C68.885 169.513 68.89 169.545 68.8837 169.574C68.8774 169.604 68.8602 169.631 68.8354 169.649L67.6715 170.318C67.6517 170.335 67.6276 170.345 67.6022 170.348Z" fill="#25054D"/>
<path d="M99.2347 159.106C98.7285 158.76 98.1338 158.564 97.5199 158.541C96.9061 158.519 96.2984 158.67 95.7678 158.978L76.3436 170.229C76.1456 170.344 75.9801 170.508 75.8625 170.704C75.7448 170.9 75.6787 171.123 75.6703 171.351C75.662 171.579 75.7115 171.806 75.8145 172.01C75.9174 172.214 76.0704 172.389 76.2594 172.519V172.519C76.8151 172.898 77.4673 173.112 78.1404 173.138C78.8136 173.163 79.4802 172.998 80.063 172.662L99.1406 161.608C99.3586 161.483 99.5412 161.305 99.6712 161.091C99.8012 160.877 99.8743 160.633 99.8837 160.383C99.8931 160.133 99.8385 159.884 99.725 159.661C99.6114 159.438 99.4427 159.247 99.2347 159.106V159.106Z" fill="black"/>
<path d="M99.2347 158.543C98.7285 158.197 98.1338 158.001 97.5199 157.979C96.9061 157.956 96.2984 158.108 95.7678 158.415L76.3436 169.666C76.1456 169.782 75.9801 169.946 75.8625 170.142C75.7448 170.338 75.6787 170.56 75.6703 170.789C75.662 171.017 75.7115 171.244 75.8145 171.448C75.9174 171.652 76.0704 171.827 76.2594 171.957V171.957C76.8151 172.336 77.4677 172.55 78.1411 172.575C78.8145 172.599 79.481 172.433 80.063 172.095L99.1406 161.046C99.3586 160.921 99.5412 160.743 99.6712 160.529C99.8012 160.314 99.8743 160.071 99.8837 159.82C99.8931 159.57 99.8385 159.322 99.725 159.099C99.6114 158.875 99.4427 158.684 99.2347 158.543V158.543Z" fill="url(#paint39_linear_1810_769)"/>
<path d="M93.0785 164.9L89.1164 162.2C88.9379 162.078 88.728 162.009 88.5113 162.001C88.2946 161.993 88.0801 162.047 87.8931 162.156L83.0742 164.949C83.0109 164.992 82.9587 165.05 82.9217 165.117C82.8847 165.184 82.8639 165.259 82.861 165.336C82.8581 165.412 82.8732 165.488 82.9051 165.558C82.9369 165.628 82.9846 165.689 83.0445 165.737L87.0066 168.437C87.1841 168.559 87.3933 168.628 87.6092 168.636C87.8252 168.644 88.0389 168.59 88.225 168.481L93.0488 165.688C93.1181 165.649 93.1761 165.593 93.2175 165.526C93.2588 165.458 93.2821 165.381 93.2851 165.302C93.2881 165.223 93.2706 165.145 93.2345 165.074C93.1983 165.004 93.1446 164.944 93.0785 164.9V164.9Z" fill="black"/>
<path d="M93.0785 164.615L89.1164 161.915C88.9379 161.793 88.7279 161.723 88.5112 161.716C88.2946 161.708 88.0801 161.762 87.8931 161.871L83.0742 164.659C83.0099 164.702 82.9569 164.76 82.9193 164.828C82.8816 164.895 82.8605 164.971 82.8576 165.048C82.8548 165.125 82.8702 165.202 82.9026 165.272C82.9351 165.342 82.9837 165.404 83.0445 165.452L87.0066 168.151C87.1846 168.273 87.3936 168.341 87.6093 168.349C87.825 168.357 88.0385 168.304 88.2249 168.196L93.0488 165.403C93.118 165.364 93.1761 165.308 93.2175 165.24C93.2588 165.173 93.2821 165.096 93.2851 165.017C93.288 164.938 93.2706 164.859 93.2345 164.789C93.1983 164.719 93.1446 164.658 93.0785 164.615V164.615Z" fill="url(#paint40_linear_1810_769)"/>
<path style="mix-blend-mode:color-dodge" d="M83.0346 165.174L86.9967 167.873C87.1742 167.996 87.3834 168.065 87.5993 168.073C87.8153 168.081 88.029 168.027 88.2151 167.917L93.0389 165.129C93.1376 165.068 93.2112 164.974 93.2469 164.863C93.2792 164.963 93.2761 165.071 93.2383 165.168C93.2004 165.266 93.1301 165.348 93.0389 165.4L88.2151 168.193C88.0286 168.301 87.8151 168.355 87.5994 168.347C87.3837 168.339 87.1747 168.27 86.9967 168.149L83.0346 165.449C82.9541 165.39 82.8935 165.308 82.8608 165.214C82.828 165.12 82.8248 165.018 82.8513 164.922C82.8812 165.025 82.946 165.114 83.0346 165.174V165.174Z" fill="url(#paint41_radial_1810_769)"/>
<path style="mix-blend-mode:color-dodge" d="M96.8425 162.934V162.353L93.1231 159.949L92.8655 160.087L96.5355 162.506V163.107L96.8425 162.934Z" fill="url(#paint42_radial_1810_769)"/>
<path d="M96.6692 163.071V162.49L92.9497 160.086L92.6922 160.219L96.3621 162.643V163.239L96.6692 163.071Z" fill="black"/>
<path style="mix-blend-mode:color-dodge" d="M83.193 170.808V170.232L79.4736 167.828L79.2161 167.961L82.886 170.385V170.981L83.193 170.808Z" fill="url(#paint43_radial_1810_769)"/>
<path d="M83.0197 170.946V170.37L79.3003 167.961L79.0427 168.099L82.7126 170.522V171.118L83.0197 170.946Z" fill="black"/>
<path d="M90.3843 164.645L88.6954 163.488C88.572 163.403 88.4269 163.354 88.277 163.348C88.1271 163.342 87.9785 163.379 87.8485 163.453L85.7189 164.69C85.6636 164.724 85.6181 164.772 85.5866 164.829C85.555 164.886 85.5385 164.95 85.5385 165.015C85.5385 165.08 85.555 165.144 85.5866 165.2C85.6181 165.257 85.6636 165.305 85.7189 165.34L87.4028 166.497C87.5272 166.583 87.6735 166.631 87.8244 166.636C87.9753 166.641 88.1246 166.603 88.2546 166.527L90.3843 165.295C90.4384 165.26 90.4829 165.212 90.5136 165.155C90.5444 165.098 90.5605 165.035 90.5605 164.97C90.5605 164.906 90.5444 164.842 90.5136 164.786C90.4829 164.729 90.4384 164.681 90.3843 164.645Z" fill="url(#paint44_linear_1810_769)"/>
<g style="mix-blend-mode:multiply">
<path d="M120.66 92.3671C123.716 94.1257 126.197 92.7168 126.197 89.2243C126.197 85.7318 123.72 81.4807 120.66 79.7221C117.599 77.9636 115.118 79.3724 115.118 82.8649C115.118 86.3574 117.624 90.6085 120.66 92.3671ZM139.257 90.6282C134.205 87.7268 130.61 109.288 124.974 106.051C119.337 102.815 117.297 93.2144 112.825 90.643C109.734 88.8697 106.198 101.534 103.692 103.475V103.677L151.014 130.849V130.322C147.127 123.44 143.135 92.8548 139.257 90.6282ZM149.43 91.8105V92.4853L140.203 87.0668V86.2195L138.306 85.0964V85.9289L131.11 81.7122V81.2196L129.371 80.2344V82.2048L131.11 83.19V82.2836L137.994 86.318C137.695 86.3123 137.398 86.3538 137.112 86.4412C135.305 86.9929 133.933 89.2736 132.729 91.7169L131.912 91.2243C131.875 91.2027 131.832 91.1913 131.788 91.1913C131.745 91.1913 131.702 91.2027 131.665 91.2243C131.626 91.245 131.595 91.2756 131.573 91.313C131.551 91.3503 131.54 91.3929 131.541 91.4361V93.6035C131.54 93.6467 131.551 93.6893 131.573 93.7266C131.595 93.764 131.626 93.7946 131.665 93.8153L133.556 94.904C133.595 94.9245 133.637 94.9362 133.68 94.9384C133.724 94.9376 133.766 94.9257 133.804 94.904C133.842 94.8833 133.874 94.8526 133.896 94.8153C133.918 94.7779 133.929 94.7353 133.928 94.6922V92.5247C133.929 92.4815 133.918 92.439 133.896 92.4016C133.874 92.3643 133.842 92.3336 133.804 92.3129L133.16 91.9435C134.27 89.6923 135.637 87.3919 137.261 86.8894C137.599 86.787 137.956 86.7601 138.306 86.8106V87.2441L140.203 88.3327V87.7564C141.689 89.0963 143.843 92.3523 145.101 97.5443L144.541 97.2192C144.504 97.1976 144.461 97.1862 144.418 97.1862C144.374 97.1862 144.331 97.1976 144.294 97.2192C144.256 97.2399 144.224 97.2705 144.202 97.3079C144.18 97.3452 144.169 97.3878 144.17 97.431V99.5935C144.169 99.6373 144.18 99.6805 144.202 99.7186C144.224 99.7567 144.256 99.7883 144.294 99.8102L146.186 100.899C146.224 100.918 146.266 100.928 146.309 100.928C146.353 100.929 146.395 100.919 146.433 100.899C146.471 100.877 146.503 100.845 146.525 100.807C146.547 100.769 146.558 100.726 146.557 100.682V98.5196C146.558 98.4764 146.547 98.4339 146.525 98.3965C146.503 98.3592 146.471 98.3285 146.433 98.3078L145.695 97.8842C144.705 93.5986 143.011 90.2145 141.401 88.2933L149.43 92.9927V93.7513L151.168 94.7365V92.7661L149.43 91.8105ZM133.433 92.707V94.303L132.036 93.5001V91.9041L133.433 92.707ZM146.062 98.7019V100.298L144.665 99.49V97.9039L146.062 98.7019Z" fill="#E6E7E8"/>
</g>
<path d="M123.857 93.002C126.005 91.7526 125.983 87.7372 123.806 84.0334C121.629 80.3295 118.122 78.3398 115.973 79.5893C113.824 80.8387 113.847 84.8541 116.024 88.5579C118.201 92.2618 121.708 94.2515 123.857 93.002Z" fill="url(#paint45_linear_1810_769)"/>
<path d="M102.949 103.924L150.272 131.095V130.568C146.384 123.672 142.392 93.1014 138.514 90.8749C133.462 87.9735 129.867 109.534 124.231 106.298C118.595 103.062 116.554 93.461 112.082 90.8897C108.991 89.1163 105.455 101.781 102.949 103.722V103.924Z" fill="url(#paint46_linear_1810_769)"/>
<path style="mix-blend-mode:color-dodge" d="M148.687 92.0594V92.7096L139.46 87.291V86.4438L137.563 85.3502V86.1827L130.367 81.9661V81.4735L128.629 80.4883V82.4587L130.367 83.4439V82.5375L137.251 86.5718C136.953 86.5661 136.655 86.6077 136.37 86.695C134.562 87.2615 133.19 89.5324 131.986 91.9953L131.169 91.5027C131.132 91.4811 131.089 91.4697 131.045 91.4697C131.002 91.4697 130.959 91.4811 130.922 91.5027C130.884 91.5234 130.852 91.5541 130.83 91.5915C130.808 91.6288 130.797 91.6714 130.798 91.7146V93.882C130.797 93.9252 130.808 93.9677 130.83 94.0051C130.852 94.0424 130.884 94.0731 130.922 94.0938L132.814 95.1824C132.852 95.2029 132.894 95.2147 132.937 95.2169C132.981 95.216 133.024 95.2042 133.061 95.1824C133.099 95.1617 133.131 95.1311 133.153 95.0937C133.175 95.0564 133.186 95.0138 133.185 94.9706V92.8032C133.186 92.76 133.175 92.7174 133.153 92.6801C133.131 92.6428 133.099 92.6121 133.061 92.5914L132.417 92.2219C133.527 89.9708 134.894 87.6703 136.518 87.1679C136.856 87.0654 137.213 87.0385 137.563 87.0891V87.5226L139.46 88.6112V88.0546C140.946 89.3944 143.1 92.6505 144.358 97.8425L143.799 97.5174C143.761 97.4957 143.718 97.4843 143.675 97.4843C143.631 97.4843 143.589 97.4957 143.551 97.5174C143.513 97.538 143.481 97.5687 143.459 97.6061C143.437 97.6434 143.426 97.686 143.427 97.7292V99.8769C143.426 99.9207 143.438 99.9639 143.459 100.002C143.481 100.04 143.513 100.072 143.551 100.094L145.443 101.182C145.481 101.201 145.524 101.211 145.567 101.212C145.61 101.213 145.652 101.202 145.69 101.182C145.729 101.16 145.76 101.129 145.782 101.091C145.804 101.053 145.815 101.009 145.814 100.966V98.803C145.815 98.7598 145.804 98.7173 145.782 98.6799C145.76 98.6426 145.729 98.6119 145.69 98.5912L144.953 98.1676C143.962 93.882 142.268 90.4978 140.659 88.5767L148.687 93.2761V94.0347L150.425 95.0199V93.0495L148.687 92.0594ZM132.69 94.5519L131.293 93.749V92.153L132.69 92.9559V94.5519ZM145.319 100.547L143.922 99.739V98.1479L145.319 98.9508V100.547Z" fill="url(#paint47_radial_1810_769)"/>
<path d="M54.9432 150.333C53.7733 150.356 52.617 150.079 51.5853 149.53C50.6394 148.988 50.0995 148.249 50.0995 147.461C50.0995 146.673 50.5948 145.944 51.5457 145.412C52.5646 144.867 53.7077 144.594 54.864 144.619C56.034 144.596 57.1902 144.872 58.2219 145.422C59.1678 145.963 59.7077 146.697 59.7077 147.491C59.7077 148.284 59.2124 149.003 58.2615 149.54C57.2424 150.083 56.0995 150.357 54.9432 150.333V150.333ZM54.8838 145.111C53.8148 145.087 52.7574 145.336 51.8132 145.835C51.0405 146.279 50.6146 146.855 50.6146 147.461C50.6146 148.067 51.0455 148.653 51.833 149.101C52.7914 149.582 53.8499 149.833 54.9234 149.833C55.9969 149.833 57.0555 149.582 58.0139 149.101C58.7865 148.658 59.2124 148.082 59.2124 147.476C59.2124 146.87 58.7815 146.284 57.9941 145.83C57.0358 145.331 55.9652 145.084 54.8838 145.111V145.111Z" fill="url(#paint48_linear_1810_769)"/>
<path d="M60.51 161.355L60.0741 161.207V161.055C59.98 160.449 59.1232 159.227 58.2961 158.05C57.0778 156.326 55.8198 154.542 56.0427 153.537C56.0697 153.414 56.123 153.298 56.199 153.197C56.2751 153.096 56.3721 153.012 56.4835 152.951C57.6919 152.257 59.4551 152.281 61.3717 152.311C63.4518 152.34 65.5963 152.37 67.1663 151.474C67.289 151.414 67.397 151.329 67.4826 151.223C67.5682 151.118 67.6293 150.994 67.6616 150.863C67.9043 149.794 66.5225 147.809 65.4131 146.218C65.3925 146.191 65.3775 146.161 65.3691 146.128C65.3607 146.096 65.3589 146.062 65.364 146.029C65.3691 145.996 65.3809 145.965 65.3987 145.936C65.4165 145.908 65.4399 145.883 65.4675 145.864C65.4951 145.845 65.5263 145.832 65.5592 145.825C65.5921 145.819 65.626 145.819 65.659 145.825C65.6919 145.832 65.723 145.846 65.7506 145.865C65.7781 145.884 65.8015 145.908 65.8192 145.937C67.0475 147.695 68.4342 149.69 68.142 150.971C68.098 151.167 68.0119 151.351 67.8897 151.511C67.7674 151.671 67.6119 151.803 67.4338 151.897C65.7499 152.882 63.5311 152.833 61.3816 152.804C59.564 152.774 57.8405 152.749 56.7509 153.375C56.6994 153.403 56.6546 153.441 56.6195 153.488C56.5845 153.535 56.56 153.589 56.5479 153.646C56.3745 154.434 57.6721 156.281 58.7221 157.769C59.5838 158.991 60.3366 160.064 60.5397 160.793L82.0094 148.479C82.0372 148.462 82.0681 148.451 82.1003 148.446C82.1325 148.442 82.1652 148.444 82.1966 148.452C82.228 148.46 82.2575 148.475 82.2831 148.495C82.3088 148.514 82.3303 148.539 82.3462 148.567C82.3789 148.624 82.3879 148.692 82.3712 148.755C82.3546 148.819 82.3136 148.873 82.257 148.907L60.51 161.355Z" fill="url(#paint49_linear_1810_769)"/>
<path d="M66.2303 145.193C65.839 145.4 64.6256 145.686 64.4176 145.316C64.2096 144.947 65.0813 144.001 65.4725 143.794C65.659 143.694 65.8778 143.672 66.0808 143.733C66.2837 143.793 66.4542 143.931 66.5547 144.117C66.6552 144.302 66.6774 144.52 66.6166 144.722C66.5558 144.924 66.4168 145.093 66.2303 145.193V145.193Z" fill="url(#paint50_radial_1810_769)"/>
<path d="M73.1144 143.746C75.1698 142.672 72.4211 137.396 70.1676 138.692C67.9142 139.987 65.4428 143.342 65.4428 143.342C65.2841 143.532 65.1936 143.769 65.1855 144.016C65.1775 144.263 65.2523 144.506 65.3982 144.706C65.4772 144.943 65.6377 145.145 65.8516 145.276C66.0654 145.406 66.3188 145.458 66.567 145.421V145.421C66.567 145.421 71.069 144.824 73.1144 143.746Z" fill="url(#paint51_linear_1810_769)"/>
<path d="M88.4032 135.342L85.5852 130.141L70.128 138.682C69.286 139.131 69.2365 140.653 70.0141 142.096C70.7916 143.539 72.1041 144.332 72.946 143.879L88.4032 135.342Z" fill="url(#paint52_linear_1810_769)"/>
<path d="M88.4032 135.344C87.5613 135.792 86.2488 134.994 85.4713 133.561C84.6937 132.127 84.7432 130.605 85.5852 130.142C86.4271 129.679 87.7396 130.492 88.5172 131.93C89.2947 133.368 89.2502 134.915 88.4032 135.344Z" fill="url(#paint53_linear_1810_769)"/>
<path d="M110.343 123.028L108.06 118.816L85.5654 130.195C84.7284 130.644 84.6739 132.166 85.4515 133.609C86.229 135.052 87.5415 135.845 88.3834 135.397L110.343 123.028Z" fill="url(#paint54_linear_1810_769)"/>
<path d="M110.334 123.028C109.655 123.393 108.59 122.748 107.961 121.585C107.332 120.423 107.372 119.181 108.05 118.817C108.729 118.452 109.799 119.097 110.428 120.26C111.057 121.422 111.017 122.684 110.334 123.028Z" fill="url(#paint55_linear_1810_769)"/>
<path style="mix-blend-mode:color-dodge" d="M108.06 121.585C107.431 120.417 107.471 119.181 108.149 118.816H108.199C108.121 118.83 108.045 118.857 107.976 118.895C107.293 119.26 107.253 120.496 107.882 121.659C108.511 122.821 109.526 123.437 110.21 123.136C109.536 123.25 108.625 122.624 108.06 121.585Z" fill="url(#paint56_radial_1810_769)"/>
<path style="mix-blend-mode:multiply" opacity="0.2" d="M89.3938 158.657L69.8309 147.051C69.7556 147.007 69.6779 146.968 69.5981 146.933C68.1429 146.185 66.633 145.548 65.0813 145.026V145.026C64.7693 144.923 64.586 145.026 64.69 145.381C64.7893 145.78 65.0303 146.13 65.3685 146.366V146.366C65.3685 146.366 68.2609 148.746 70.133 149.982C70.2305 150.068 70.3367 150.144 70.4499 150.209V150.209L90.102 161.942L89.3938 158.657Z" fill="url(#paint57_radial_1810_769)"/>
<path style="mix-blend-mode:multiply" opacity="0.3" d="M75.878 151.303L67.1069 146.096L67.0029 146.042C66.3476 145.71 65.669 145.427 64.9723 145.194V145.194C64.8336 145.15 64.903 145.623 65.1011 145.8C65.1011 145.8 66.3987 146.869 67.2406 147.421C67.2831 147.46 67.3296 147.495 67.3793 147.524V147.524L76.19 152.785L75.878 151.303Z" fill="url(#paint58_radial_1810_769)"/>
<path style="mix-blend-mode:screen" d="M106.763 120.743C107.09 121.354 102.112 124.605 97.2239 127.147C92.3356 129.689 88.1209 131.27 87.8139 130.654C87.5068 130.039 91.1866 127.477 96.0749 124.926C100.963 122.374 106.441 120.128 106.763 120.743Z" fill="url(#paint59_radial_1810_769)"/>
<g style="mix-blend-mode:multiply">
<path d="M83.3805 132.112L70.3132 139.186C70.0129 139.349 69.9019 139.723 70.0654 140.021L70.3022 140.454C70.4656 140.753 70.8416 140.863 71.1419 140.7L84.2092 133.626C84.5095 133.463 84.6205 133.089 84.457 132.791L84.2202 132.358C84.0568 132.059 83.6808 131.949 83.3805 132.112Z" fill="#939598"/>
</g>
<path d="M79.1065 134.646L71.6158 138.701C71.3948 138.821 71.3131 139.096 71.4334 139.316L71.611 139.641C71.7313 139.86 72.008 139.942 72.229 139.822L79.7197 135.767C79.9407 135.647 80.0224 135.372 79.9021 135.152L79.7245 134.827C79.6042 134.608 79.3275 134.526 79.1065 134.646Z" fill="url(#paint60_linear_1810_769)"/>
<g style="mix-blend-mode:screen">
<path d="M79.8104 134.998C79.755 134.899 79.6726 134.817 79.5727 134.762C79.605 134.794 79.6348 134.828 79.6618 134.865C79.7429 135.014 79.7614 135.189 79.7131 135.352C79.6649 135.514 79.5538 135.651 79.4043 135.732L72.2428 139.609C72.1461 139.663 72.0369 139.692 71.9258 139.692C71.8147 139.692 71.7055 139.663 71.6088 139.609C71.7021 139.72 71.8309 139.795 71.9736 139.822C72.1162 139.849 72.2638 139.826 72.3913 139.757L79.5529 135.88C79.6293 135.84 79.697 135.786 79.7516 135.719C79.8063 135.653 79.8469 135.576 79.871 135.494C79.895 135.411 79.9021 135.325 79.8917 135.24C79.8813 135.155 79.8536 135.072 79.8104 134.998Z" fill="#58595B"/>
</g>
<path style="mix-blend-mode:color-dodge" d="M106.441 119.824L70.3162 138.888C70.2276 138.944 70.1432 139.007 70.0636 139.075C67.8943 140.474 65.4428 143.341 65.4428 143.341C65.2841 143.531 65.1936 143.768 65.1855 144.015C65.1775 144.262 65.2523 144.505 65.3982 144.705C65.4772 144.942 65.6377 145.144 65.8516 145.275C66.0654 145.405 66.3188 145.457 66.567 145.42V145.42C66.567 145.42 70.3211 144.927 72.5102 144.011C72.647 143.996 72.7797 143.956 72.9015 143.892V143.892L108.709 123.937L106.441 119.824Z" fill="url(#paint61_radial_1810_769)"/>
<path style="mix-blend-mode:screen" opacity="0.5" d="M71.6039 140.012C73.4364 138.579 72.5944 137.387 70.5787 139.027C68.563 140.667 65.8539 143.318 65.8539 143.318C65.5419 143.613 65.3933 143.845 65.4923 143.973C65.5914 144.101 65.7499 144.052 66.2154 143.771C66.2154 143.771 69.7764 141.441 71.6039 140.012Z" fill="url(#paint62_radial_1810_769)"/>
<path style="mix-blend-mode:screen" opacity="0.2" d="M72.4458 143.653C74.3575 143.086 74.1842 142.234 72.0546 142.88C69.9249 143.525 66.8939 144.702 66.8939 144.702C66.5472 144.83 66.3491 144.944 66.3986 145.037C66.4482 145.131 66.5621 145.126 67.0128 145.037C67.0128 145.037 70.5391 144.21 72.4458 143.653Z" fill="url(#paint63_radial_1810_769)"/>
<g opacity="0.9">
<path opacity="0.9" d="M116.752 61.7176V75.7812L120.848 73.4266V59.2891L116.752 61.7176Z" fill="url(#paint64_linear_1810_769)"/>
<path opacity="0.9" d="M116.762 61.7157V75.7793L75.0707 51.7948V37.6523L116.762 61.7157Z" fill="url(#paint65_linear_1810_769)"/>
<path opacity="0.9" d="M75.0707 37.6539L116.762 61.7172L120.848 59.2887L79.1369 35.25L75.0707 37.6539Z" fill="url(#paint66_linear_1810_769)"/>
</g>
<path d="M82.7275 53.8786L77.9235 51.12V41.7656L82.7275 44.5242V53.8786Z" fill="#138BBD"/>
<path d="M89.0223 57.4869L84.2183 54.7284V45.3789L89.0223 48.1374V57.4869Z" fill="#18A0CA"/>
<path d="M95.3171 61.1041L90.5131 58.3456V48.9961L95.3171 51.7546V61.1041Z" fill="#1CB6D7"/>
<path d="M101.612 64.7174L96.8079 61.9589V52.6094L101.612 55.3679V64.7174Z" fill="#21CBE5"/>
<path d="M107.907 68.3356L103.103 65.5771V56.2227L107.907 58.9812V68.3356Z" fill="#25E1F2"/>
<path d="M114.202 71.9489L109.397 69.1903V59.8359L114.202 62.5945V71.9489Z" fill="#2AF6FF"/>
</g>
<defs>
<linearGradient id="paint0_linear_1810_769" x1="94.0691" y1="149.991" x2="165.283" y2="149.991" gradientUnits="userSpaceOnUse">
<stop offset="0.06" stop-color="#200041"/>
<stop offset="0.26" stop-color="#210243"/>
<stop offset="0.36" stop-color="#25084B"/>
<stop offset="0.43" stop-color="#2C1358"/>
<stop offset="0.47" stop-color="#311B61"/>
<stop offset="0.48" stop-color="#351F65"/>
<stop offset="0.5" stop-color="#422C73"/>
<stop offset="0.51" stop-color="#584188"/>
<stop offset="0.52" stop-color="#765FA7"/>
<stop offset="0.53" stop-color="#8770B8"/>
<stop offset="0.54" stop-color="#7E67AE"/>
<stop offset="0.56" stop-color="#5C468D"/>
<stop offset="0.59" stop-color="#442E75"/>
<stop offset="0.61" stop-color="#362066"/>
<stop offset="0.63" stop-color="#311B61"/>
<stop offset="0.67" stop-color="#2A1155"/>
<stop offset="0.75" stop-color="#230446"/>
<stop offset="0.81" stop-color="#200041"/>
<stop offset="1" stop-color="#200041"/>
</linearGradient>
<linearGradient id="paint1_linear_1810_769" x1="113.127" y1="154.544" x2="145.326" y2="136.634" gradientUnits="userSpaceOnUse">
<stop stop-color="#311B61"/>
<stop offset="0.2" stop-color="#290F52"/>
<stop offset="0.49" stop-color="#200041"/>
<stop offset="1" stop-color="#0F001F"/>
</linearGradient>
<linearGradient id="paint2_linear_1810_769" x1="130.248" y1="146.151" x2="136.532" y2="135.55" gradientUnits="userSpaceOnUse">
<stop stop-color="white"/>
<stop offset="1"/>
</linearGradient>
<radialGradient id="paint3_radial_1810_769" cx="0" cy="0" r="1" gradientUnits="userSpaceOnUse" gradientTransform="translate(130.456 160.509) scale(25.3377 25.2012)">
<stop stop-color="#AF8AFC"/>
<stop offset="1" stop-color="#10054D"/>
</radialGradient>
<linearGradient id="paint4_linear_1810_769" x1="33065" y1="40730.3" x2="353.233" y2="7263.19" gradientUnits="userSpaceOnUse">
<stop stop-color="#311B61"/>
<stop offset="0.2" stop-color="#290F52"/>
<stop offset="0.49" stop-color="#200041"/>
<stop offset="1" stop-color="#0F001F"/>
</linearGradient>
<linearGradient id="paint5_linear_1810_769" x1="88.2645" y1="31.966" x2="180.295" y2="171.1" gradientUnits="userSpaceOnUse">
<stop offset="0.01" stop-color="#9F19AB"/>
<stop offset="0.43" stop-color="#5F27BD"/>
<stop offset="0.9" stop-color="#3D065F"/>
</linearGradient>
<linearGradient id="paint6_linear_1810_769" x1="37665.9" y1="41957.4" x2="10599.4" y2="10443.3" gradientUnits="userSpaceOnUse">
<stop offset="0.06" stop-color="#200041"/>
<stop offset="0.26" stop-color="#210243"/>
<stop offset="0.36" stop-color="#25084B"/>
<stop offset="0.43" stop-color="#2C1358"/>
<stop offset="0.47" stop-color="#311B61"/>
<stop offset="0.48" stop-color="#351F65"/>
<stop offset="0.5" stop-color="#422C73"/>
<stop offset="0.51" stop-color="#584188"/>
<stop offset="0.52" stop-color="#765FA7"/>
<stop offset="0.53" stop-color="#8770B8"/>
<stop offset="0.54" stop-color="#7E67AE"/>
<stop offset="0.56" stop-color="#5C468D"/>
<stop offset="0.59" stop-color="#442E75"/>
<stop offset="0.61" stop-color="#362066"/>
<stop offset="0.63" stop-color="#311B61"/>
<stop offset="0.67" stop-color="#2A1155"/>
<stop offset="0.75" stop-color="#230446"/>
<stop offset="0.81" stop-color="#200041"/>
<stop offset="1" stop-color="#200041"/>
</linearGradient>
<radialGradient id="paint7_radial_1810_769" cx="0" cy="0" r="1" gradientUnits="userSpaceOnUse" gradientTransform="translate(31802.8 19403.7) scale(2981.54 4160.02)">
<stop stop-color="#AF8AFC"/>
<stop offset="1" stop-color="#10054D"/>
</radialGradient>
<linearGradient id="paint8_linear_1810_769" x1="85.9368" y1="114.106" x2="100.925" y2="109.593" gradientUnits="userSpaceOnUse">
<stop offset="0.04" stop-color="#FFA98C"/>
<stop offset="0.32" stop-color="#FFB892"/>
<stop offset="0.86" stop-color="#FEE1A3"/>
<stop offset="1" stop-color="#FEECA8"/>
</linearGradient>
<linearGradient id="paint9_linear_1810_769" x1="814.82" y1="3151.22" x2="1522.22" y2="3056.31" gradientUnits="userSpaceOnUse">
<stop offset="0.04" stop-color="#FFA98C"/>
<stop offset="0.32" stop-color="#FFB892"/>
<stop offset="0.86" stop-color="#FEE1A3"/>
<stop offset="1" stop-color="#FEECA8"/>
</linearGradient>
<linearGradient id="paint10_linear_1810_769" x1="1846.67" y1="1312.06" x2="1784.54" y2="1514.57" gradientUnits="userSpaceOnUse">
<stop offset="0.04" stop-color="#FFA98C"/>
<stop offset="0.32" stop-color="#FFB892"/>
<stop offset="0.86" stop-color="#FEE1A3"/>
<stop offset="1" stop-color="#FEECA8"/>
</linearGradient>
<linearGradient id="paint11_linear_1810_769" x1="627.265" y1="2134.24" x2="773.732" y2="2119.56" gradientUnits="userSpaceOnUse">
<stop offset="0.04" stop-color="#FFA98C"/>
<stop offset="0.32" stop-color="#FFB892"/>
<stop offset="0.86" stop-color="#FEE1A3"/>
<stop offset="1" stop-color="#FEECA8"/>
</linearGradient>
<linearGradient id="paint12_linear_1810_769" x1="814.82" y1="2666.44" x2="1522.24" y2="2571.45" gradientUnits="userSpaceOnUse">
<stop offset="0.04" stop-color="#FFA98C"/>
<stop offset="0.32" stop-color="#FFB892"/>
<stop offset="0.86" stop-color="#FEE1A3"/>
<stop offset="1" stop-color="#FEECA8"/>
</linearGradient>
<linearGradient id="paint13_linear_1810_769" x1="1846.67" y1="1058.98" x2="1784.54" y2="1261.49" gradientUnits="userSpaceOnUse">
<stop offset="0.04" stop-color="#FFA98C"/>
<stop offset="0.32" stop-color="#FFB892"/>
<stop offset="0.86" stop-color="#FEE1A3"/>
<stop offset="1" stop-color="#FEECA8"/>
</linearGradient>
<linearGradient id="paint14_linear_1810_769" x1="627.265" y1="1735.01" x2="773.732" y2="1720.33" gradientUnits="userSpaceOnUse">
<stop offset="0.04" stop-color="#FFA98C"/>
<stop offset="0.32" stop-color="#FFB892"/>
<stop offset="0.86" stop-color="#FEE1A3"/>
<stop offset="1" stop-color="#FEECA8"/>
</linearGradient>
<linearGradient id="paint15_linear_1810_769" x1="814.82" y1="2177.99" x2="1522.24" y2="2083" gradientUnits="userSpaceOnUse">
<stop offset="0.04" stop-color="#FFA98C"/>
<stop offset="0.32" stop-color="#FFB892"/>
<stop offset="0.86" stop-color="#FEE1A3"/>
<stop offset="1" stop-color="#FEECA8"/>
</linearGradient>
<linearGradient id="paint16_linear_1810_769" x1="1846.67" y1="803.488" x2="1784.54" y2="1006" gradientUnits="userSpaceOnUse">
<stop offset="0.04" stop-color="#FFA98C"/>
<stop offset="0.32" stop-color="#FFB892"/>
<stop offset="0.86" stop-color="#FEE1A3"/>
<stop offset="1" stop-color="#FEECA8"/>
</linearGradient>
<linearGradient id="paint17_linear_1810_769" x1="168.77" y1="143.128" x2="183.758" y2="138.616" gradientUnits="userSpaceOnUse">
<stop offset="0.04" stop-color="#138BBD"/>
<stop offset="0.23" stop-color="#169AC7"/>
<stop offset="0.59" stop-color="#1FC3DF"/>
<stop offset="1" stop-color="#2AF6FF"/>
</linearGradient>
<linearGradient id="paint18_linear_1810_769" x1="2550.17" y1="4151.34" x2="3257.59" y2="4056.35" gradientUnits="userSpaceOnUse">
<stop offset="0.04" stop-color="#138BBD"/>
<stop offset="0.23" stop-color="#169AC7"/>
<stop offset="0.59" stop-color="#1FC3DF"/>
<stop offset="1" stop-color="#2AF6FF"/>
</linearGradient>
<linearGradient id="paint19_linear_1810_769" x1="4330" y1="1835.65" x2="4267.86" y2="2038.16" gradientUnits="userSpaceOnUse">
<stop offset="0.04" stop-color="#138BBD"/>
<stop offset="0.23" stop-color="#169AC7"/>
<stop offset="0.59" stop-color="#1FC3DF"/>
<stop offset="1" stop-color="#2AF6FF"/>
</linearGradient>
<linearGradient id="paint20_linear_1810_769" x1="168.77" y1="123.792" x2="183.758" y2="119.28" gradientUnits="userSpaceOnUse">
<stop offset="0.04" stop-color="#9F19AB"/>
<stop offset="0.24" stop-color="#AE25B1"/>
<stop offset="0.65" stop-color="#D744BF"/>
<stop offset="1" stop-color="#FF63CE"/>
</linearGradient>
<linearGradient id="paint21_linear_1810_769" x1="2550.17" y1="3484.5" x2="3257.59" y2="3389.5" gradientUnits="userSpaceOnUse">
<stop offset="0.04" stop-color="#9F19AB"/>
<stop offset="0.24" stop-color="#AE25B1"/>
<stop offset="0.65" stop-color="#D744BF"/>
<stop offset="1" stop-color="#FF63CE"/>
</linearGradient>
<linearGradient id="paint22_linear_1810_769" x1="4330" y1="1486.86" x2="4267.86" y2="1689.37" gradientUnits="userSpaceOnUse">
<stop offset="0.04" stop-color="#9F19AB"/>
<stop offset="0.24" stop-color="#AE25B1"/>
<stop offset="0.65" stop-color="#D744BF"/>
<stop offset="1" stop-color="#FF63CE"/>
</linearGradient>
<linearGradient id="paint23_linear_1810_769" x1="1459.73" y1="2397.95" x2="1606.2" y2="2383.28" gradientUnits="userSpaceOnUse">
<stop offset="0.04" stop-color="#9F19AB"/>
<stop offset="0.24" stop-color="#AE25B1"/>
<stop offset="0.65" stop-color="#D744BF"/>
<stop offset="1" stop-color="#FF63CE"/>
</linearGradient>
<linearGradient id="paint24_linear_1810_769" x1="2550.17" y1="2988.75" x2="3257.57" y2="2893.85" gradientUnits="userSpaceOnUse">
<stop offset="0.04" stop-color="#9F19AB"/>
<stop offset="0.24" stop-color="#AE25B1"/>
<stop offset="0.65" stop-color="#D744BF"/>
<stop offset="1" stop-color="#FF63CE"/>
</linearGradient>
<linearGradient id="paint25_linear_1810_769" x1="4330" y1="1227.11" x2="4267.86" y2="1429.62" gradientUnits="userSpaceOnUse">
<stop offset="0.04" stop-color="#9F19AB"/>
<stop offset="0.24" stop-color="#AE25B1"/>
<stop offset="0.65" stop-color="#D744BF"/>
<stop offset="1" stop-color="#FF63CE"/>
</linearGradient>
<linearGradient id="paint26_linear_1810_769" x1="1459.73" y1="1981.49" x2="1606.2" y2="1966.81" gradientUnits="userSpaceOnUse">
<stop offset="0.04" stop-color="#9F19AB"/>
<stop offset="0.24" stop-color="#AE25B1"/>
<stop offset="0.65" stop-color="#D744BF"/>
<stop offset="1" stop-color="#FF63CE"/>
</linearGradient>
<linearGradient id="paint27_linear_1810_769" x1="2550.17" y1="2479.56" x2="3257.59" y2="2384.56" gradientUnits="userSpaceOnUse">
<stop offset="0.04" stop-color="#9F19AB"/>
<stop offset="0.24" stop-color="#AE25B1"/>
<stop offset="0.65" stop-color="#D744BF"/>
<stop offset="1" stop-color="#FF63CE"/>
</linearGradient>
<linearGradient id="paint28_linear_1810_769" x1="4330" y1="961.226" x2="4267.86" y2="1163.74" gradientUnits="userSpaceOnUse">
<stop offset="0.04" stop-color="#9F19AB"/>
<stop offset="0.24" stop-color="#AE25B1"/>
<stop offset="0.65" stop-color="#D744BF"/>
<stop offset="1" stop-color="#FF63CE"/>
</linearGradient>
<linearGradient id="paint29_linear_1810_769" x1="69.1422" y1="177.833" x2="77.4337" y2="166.882" gradientUnits="userSpaceOnUse">
<stop offset="0.03" stop-color="#D4D1D8"/>
<stop offset="1" stop-color="#EEEBF2"/>
</linearGradient>
<linearGradient id="paint30_linear_1810_769" x1="-157857" y1="109725" x2="-157778" y2="108893" gradientUnits="userSpaceOnUse">
<stop offset="0.03" stop-color="#D4D1D8"/>
<stop offset="1" stop-color="#EEEBF2"/>
</linearGradient>
<linearGradient id="paint31_linear_1810_769" x1="-159974" y1="117556" x2="-159760" y2="116634" gradientUnits="userSpaceOnUse">
<stop offset="0.03" stop-color="#D4D1D8"/>
<stop offset="1" stop-color="#EEEBF2"/>
</linearGradient>
<linearGradient id="paint32_linear_1810_769" x1="-125288" y1="117552" x2="-125040" y2="116720" gradientUnits="userSpaceOnUse">
<stop offset="0.03" stop-color="#D4D1D8"/>
<stop offset="1" stop-color="#EEEBF2"/>
</linearGradient>
<linearGradient id="paint33_linear_1810_769" x1="-125543" y1="121327" x2="-124822" y2="120205" gradientUnits="userSpaceOnUse">
<stop offset="0.03" stop-color="#D4D1D8"/>
<stop offset="1" stop-color="#EEEBF2"/>
</linearGradient>
<linearGradient id="paint34_linear_1810_769" x1="103381" y1="12349.7" x2="116516" y2="12349.7" gradientUnits="userSpaceOnUse">
<stop offset="0.06" stop-color="#200041"/>
<stop offset="0.26" stop-color="#210243"/>
<stop offset="0.36" stop-color="#25084B"/>
<stop offset="0.43" stop-color="#2C1358"/>
<stop offset="0.47" stop-color="#311B61"/>
<stop offset="0.48" stop-color="#351F65"/>
<stop offset="0.5" stop-color="#422C73"/>
<stop offset="0.51" stop-color="#584188"/>
<stop offset="0.52" stop-color="#765FA7"/>
<stop offset="0.53" stop-color="#8770B8"/>
<stop offset="0.54" stop-color="#7E67AE"/>
<stop offset="0.56" stop-color="#5C468D"/>
<stop offset="0.59" stop-color="#442E75"/>
<stop offset="0.61" stop-color="#362066"/>
<stop offset="0.63" stop-color="#311B61"/>
<stop offset="0.67" stop-color="#2A1155"/>
<stop offset="0.75" stop-color="#230446"/>
<stop offset="0.81" stop-color="#200041"/>
<stop offset="1" stop-color="#200041"/>
</linearGradient>
<linearGradient id="paint35_linear_1810_769" x1="4420.47" y1="13095.9" x2="9586.2" y2="6552.24" gradientUnits="userSpaceOnUse">
<stop stop-color="#311B61"/>
<stop offset="0.2" stop-color="#290F52"/>
<stop offset="0.49" stop-color="#200041"/>
<stop offset="1" stop-color="#0F001F"/>
</linearGradient>
<radialGradient id="paint36_radial_1810_769" cx="0" cy="0" r="1" gradientUnits="userSpaceOnUse" gradientTransform="translate(-456876 8326.35) rotate(180) scale(4957.91 1789.24)">
<stop stop-color="white"/>
<stop offset="1"/>
</radialGradient>
<linearGradient id="paint37_linear_1810_769" x1="28.5308" y1="151.795" x2="98.4819" y2="151.795" gradientUnits="userSpaceOnUse">
<stop stop-color="#861EB2"/>
<stop offset="0.43" stop-color="#5F27BD"/>
<stop offset="0.9" stop-color="#3D065F"/>
</linearGradient>
<radialGradient id="paint38_radial_1810_769" cx="0" cy="0" r="1" gradientUnits="userSpaceOnUse" gradientTransform="translate(77.3896 179.467) rotate(-22.4337) scale(7.18188 8.2191)">
<stop stop-color="#972A74"/>
<stop offset="0.04" stop-color="#8A266A"/>
<stop offset="0.19" stop-color="#601B4A"/>
<stop offset="0.35" stop-color="#3D112F"/>
<stop offset="0.51" stop-color="#230A1B"/>
<stop offset="0.67" stop-color="#0F040C"/>
<stop offset="0.83" stop-color="#040103"/>
<stop offset="1"/>
</radialGradient>
<linearGradient id="paint39_linear_1810_769" x1="2936.22" y1="4198.47" x2="3222.93" y2="4776.36" gradientUnits="userSpaceOnUse">
<stop stop-color="#311B61"/>
<stop offset="0.2" stop-color="#290F52"/>
<stop offset="0.49" stop-color="#200041"/>
<stop offset="1" stop-color="#0F001F"/>
</linearGradient>
<linearGradient id="paint40_linear_1810_769" x1="1338.92" y1="2016.73" x2="1561.66" y2="2356.06" gradientUnits="userSpaceOnUse">
<stop stop-color="#311B61"/>
<stop offset="0.2" stop-color="#290F52"/>
<stop offset="0.49" stop-color="#200041"/>
<stop offset="1" stop-color="#0F001F"/>
</linearGradient>
<radialGradient id="paint41_radial_1810_769" cx="0" cy="0" r="1" gradientUnits="userSpaceOnUse" gradientTransform="translate(-76332.6 1166.5) rotate(180) scale(82.1274 27.4217)">
<stop stop-color="white"/>
<stop offset="1"/>
</radialGradient>
<radialGradient id="paint42_radial_1810_769" cx="0" cy="0" r="1" gradientUnits="userSpaceOnUse" gradientTransform="translate(-26671.7 1035.06) rotate(180) scale(14.4364 11.4619)">
<stop stop-color="white"/>
<stop offset="1"/>
</radialGradient>
<radialGradient id="paint43_radial_1810_769" cx="0" cy="0" r="1" gradientUnits="userSpaceOnUse" gradientTransform="translate(-26767.7 1092.02) rotate(180) scale(14.4364 11.444)">
<stop stop-color="white"/>
<stop offset="1"/>
</radialGradient>
<linearGradient id="paint44_linear_1810_769" x1="-34757.6" y1="1118" x2="-34748.7" y2="1075.03" gradientUnits="userSpaceOnUse">
<stop stop-color="#311B61"/>
<stop offset="0.2" stop-color="#290F52"/>
<stop offset="0.49" stop-color="#200041"/>
<stop offset="1" stop-color="#0F001F"/>
</linearGradient>
<linearGradient id="paint45_linear_1810_769" x1="122.284" y1="94.6265" x2="116.768" y2="75.0302" gradientUnits="userSpaceOnUse">
<stop offset="0.04" stop-color="#FFBA78"/>
<stop offset="0.4" stop-color="#FFC987"/>
<stop offset="1" stop-color="#FEECA8"/>
</linearGradient>
<linearGradient id="paint46_linear_1810_769" x1="10230.4" y1="8701.19" x2="9216.05" y2="5134.11" gradientUnits="userSpaceOnUse">
<stop offset="0.04" stop-color="#138BBD"/>
<stop offset="0.23" stop-color="#169AC7"/>
<stop offset="0.59" stop-color="#1FC3DF"/>
<stop offset="1" stop-color="#2AF6FF"/>
</linearGradient>
<radialGradient id="paint47_radial_1810_769" cx="0" cy="0" r="1" gradientUnits="userSpaceOnUse" gradientTransform="translate(140.287 87.9363) scale(22.1532 22.0339)">
<stop stop-color="#FA45C1"/>
<stop offset="0.21" stop-color="#CB389D"/>
<stop offset="0.67" stop-color="#571843"/>
<stop offset="1"/>
</radialGradient>
<linearGradient id="paint48_linear_1810_769" x1="554.046" y1="1712.12" x2="582.188" y2="1508.16" gradientUnits="userSpaceOnUse">
<stop offset="0.04" stop-color="#FFA98C"/>
<stop offset="0.32" stop-color="#FFB892"/>
<stop offset="0.86" stop-color="#FEE1A3"/>
<stop offset="1" stop-color="#FEECA8"/>
</linearGradient>
<linearGradient id="paint49_linear_1810_769" x1="2471.62" y1="4345.16" x2="2386.22" y2="3897.98" gradientUnits="userSpaceOnUse">
<stop offset="0.04" stop-color="#FFA98C"/>
<stop offset="0.32" stop-color="#FFB892"/>
<stop offset="0.86" stop-color="#FEE1A3"/>
<stop offset="1" stop-color="#FEECA8"/>
</linearGradient>
<radialGradient id="paint50_radial_1810_769" cx="0" cy="0" r="1" gradientUnits="userSpaceOnUse" gradientTransform="translate(65.4743 144.257) rotate(61.5505) scale(1.57823 1.58291)">
<stop offset="0.1" stop-color="#8493BA"/>
<stop offset="0.21" stop-color="#606C90"/>
<stop offset="0.33" stop-color="#444D6E"/>
<stop offset="0.43" stop-color="#303756"/>
<stop offset="0.53" stop-color="#232A47"/>
<stop offset="0.62" stop-color="#1F2542"/>
<stop offset="0.71" stop-color="#242A49"/>
<stop offset="0.83" stop-color="#34395B"/>
<stop offset="0.98" stop-color="#4D517A"/>
</radialGradient>
<linearGradient id="paint51_linear_1810_769" x1="67.8779" y1="139.92" x2="70.5969" y2="144.993" gradientUnits="userSpaceOnUse">
<stop stop-color="#7D62B8"/>
<stop offset="0.13" stop-color="#9039B1"/>
<stop offset="0.25" stop-color="#9F19AB"/>
<stop offset="0.29" stop-color="#89169C"/>
<stop offset="0.36" stop-color="#5E1080"/>
<stop offset="0.43" stop-color="#3C0B6A"/>
<stop offset="0.5" stop-color="#24085A"/>
<stop offset="0.56" stop-color="#150650"/>
<stop offset="0.62" stop-color="#10054D"/>
<stop offset="0.67" stop-color="#150754"/>
<stop offset="0.75" stop-color="#230E66"/>
<stop offset="0.84" stop-color="#391985"/>
<stop offset="0.93" stop-color="#5526AB"/>
<stop offset="0.96" stop-color="#4D1BA4"/>
<stop offset="1" stop-color="#4916A1"/>
</linearGradient>
<linearGradient id="paint52_linear_1810_769" x1="13426.7" y1="80305.1" x2="13658" y2="80305.1" gradientUnits="userSpaceOnUse">
<stop stop-color="#7D62B8"/>
<stop offset="0.13" stop-color="#9039B1"/>
<stop offset="0.25" stop-color="#9F19AB"/>
<stop offset="0.29" stop-color="#89169C"/>
<stop offset="0.36" stop-color="#5E1080"/>
<stop offset="0.43" stop-color="#3C0B6A"/>
<stop offset="0.5" stop-color="#24085A"/>
<stop offset="0.56" stop-color="#150650"/>
<stop offset="0.62" stop-color="#10054D"/>
<stop offset="0.67" stop-color="#150754"/>
<stop offset="0.75" stop-color="#230E66"/>
<stop offset="0.84" stop-color="#391985"/>
<stop offset="0.93" stop-color="#5526AB"/>
<stop offset="0.96" stop-color="#4D1BA4"/>
<stop offset="1" stop-color="#4916A1"/>
</linearGradient>
<linearGradient id="paint53_linear_1810_769" x1="87.3929" y1="126.994" x2="86.6629" y2="137.763" gradientUnits="userSpaceOnUse">
<stop stop-color="#D6DAE6"/>
<stop offset="0.01" stop-color="#D4D8E6"/>
<stop offset="0.28" stop-color="#B4B8E3"/>
<stop offset="0.4" stop-color="#9A9FC8"/>
<stop offset="0.53" stop-color="#838AB0"/>
<stop offset="0.65" stop-color="#757DA1"/>
<stop offset="0.76" stop-color="#70789C"/>
<stop offset="0.85" stop-color="#777EA2"/>
<stop offset="0.99" stop-color="#898EB3"/>
<stop offset="1" stop-color="#8B90B5"/>
</linearGradient>
<linearGradient id="paint54_linear_1810_769" x1="95.8722" y1="124.687" x2="98.6215" y2="129.816" gradientUnits="userSpaceOnUse">
<stop offset="0.01" stop-color="#C1A1D5"/>
<stop offset="0.05" stop-color="#C8ABDA"/>
<stop offset="0.11" stop-color="#DAC6E6"/>
<stop offset="0.2" stop-color="#F7F2F9"/>
<stop offset="0.22" stop-color="white"/>
<stop offset="0.25" stop-color="#F9F5FB"/>
<stop offset="0.3" stop-color="#E9DBF2"/>
<stop offset="0.36" stop-color="#D1B4E3"/>
<stop offset="0.43" stop-color="#B395D6"/>
<stop offset="0.49" stop-color="#9C7DCB"/>
<stop offset="0.56" stop-color="#8E6EC5"/>
<stop offset="0.61" stop-color="#8969C3"/>
<stop offset="0.76" stop-color="#9471C6"/>
<stop offset="1" stop-color="#B086CC"/>
</linearGradient>
<linearGradient id="paint55_linear_1810_769" x1="-20023.7" y1="6387.58" x2="-20026.7" y2="6446.85" gradientUnits="userSpaceOnUse">
<stop offset="0.01" stop-color="#C1A1D5"/>
<stop offset="0.05" stop-color="#C8ABDA"/>
<stop offset="0.11" stop-color="#DAC6E6"/>
<stop offset="0.2" stop-color="#F7F2F9"/>
<stop offset="0.22" stop-color="white"/>
<stop offset="0.25" stop-color="#F9F5FB"/>
<stop offset="0.3" stop-color="#E9DBF2"/>
<stop offset="0.36" stop-color="#D1B4E3"/>
<stop offset="0.43" stop-color="#B395D6"/>
<stop offset="0.49" stop-color="#9C7DCB"/>
<stop offset="0.56" stop-color="#8E6EC5"/>
<stop offset="0.61" stop-color="#8969C3"/>
<stop offset="0.76" stop-color="#9471C6"/>
<stop offset="1" stop-color="#B086CC"/>
</linearGradient>
<radialGradient id="paint56_radial_1810_769" cx="0" cy="0" r="1" gradientUnits="userSpaceOnUse" gradientTransform="translate(107.857 120.521) scale(1.84238 1.83246)">
<stop stop-color="#B4299A"/>
<stop offset="0.12" stop-color="#8A2076"/>
<stop offset="0.26" stop-color="#601652"/>
<stop offset="0.4" stop-color="#3E0E35"/>
<stop offset="0.55" stop-color="#23081E"/>
<stop offset="0.69" stop-color="#0F030D"/>
<stop offset="0.84" stop-color="#040103"/>
<stop offset="1"/>
</radialGradient>
<radialGradient id="paint57_radial_1810_769" cx="0" cy="0" r="1" gradientUnits="userSpaceOnUse" gradientTransform="translate(62.3302 140.158) rotate(42.4264) scale(10.4664 3.97743)">
<stop/>
<stop offset="1" stop-color="white"/>
</radialGradient>
<radialGradient id="paint58_radial_1810_769" cx="0" cy="0" r="1" gradientUnits="userSpaceOnUse" gradientTransform="translate(26.1739 37928.1) scale(106.129 71.3819)">
<stop/>
<stop offset="1" stop-color="white"/>
</radialGradient>
<radialGradient id="paint59_radial_1810_769" cx="0" cy="0" r="1" gradientUnits="userSpaceOnUse" gradientTransform="translate(79.1217 131.055) rotate(-27.6965) scale(10.3342 1.30259)">
<stop stop-color="white"/>
<stop offset="0.13" stop-color="#FF63CE"/>
<stop offset="1"/>
</radialGradient>
<linearGradient id="paint60_linear_1810_769" x1="1003.02" y1="423.849" x2="1004.34" y2="441.015" gradientUnits="userSpaceOnUse">
<stop stop-color="#7D62B8"/>
<stop offset="0.13" stop-color="#9039B1"/>
<stop offset="0.25" stop-color="#9F19AB"/>
<stop offset="0.29" stop-color="#89169C"/>
<stop offset="0.36" stop-color="#5E1080"/>
<stop offset="0.43" stop-color="#3C0B6A"/>
<stop offset="0.5" stop-color="#24085A"/>
<stop offset="0.56" stop-color="#150650"/>
<stop offset="0.62" stop-color="#10054D"/>
<stop offset="0.67" stop-color="#150754"/>
<stop offset="0.75" stop-color="#230E66"/>
<stop offset="0.84" stop-color="#391985"/>
<stop offset="0.93" stop-color="#5526AB"/>
<stop offset="0.96" stop-color="#4D1BA4"/>
<stop offset="1" stop-color="#4916A1"/>
</linearGradient>
<radialGradient id="paint61_radial_1810_769" cx="0" cy="0" r="1" gradientUnits="userSpaceOnUse" gradientTransform="translate(4522.92 6452.19) scale(1320.96 777.174)">
<stop stop-color="#B4299A"/>
<stop offset="0.12" stop-color="#8A2076"/>
<stop offset="0.26" stop-color="#601652"/>
<stop offset="0.4" stop-color="#3E0E35"/>
<stop offset="0.55" stop-color="#23081E"/>
<stop offset="0.69" stop-color="#0F030D"/>
<stop offset="0.84" stop-color="#040103"/>
<stop offset="1"/>
</radialGradient>
<radialGradient id="paint62_radial_1810_769" cx="0" cy="0" r="1" gradientUnits="userSpaceOnUse" gradientTransform="translate(88.0373 149.869) rotate(51.5592) scale(0.917709 3.78201)">
<stop stop-color="#742A97"/>
<stop offset="0.04" stop-color="#6A268A"/>
<stop offset="0.19" stop-color="#4A1B60"/>
<stop offset="0.35" stop-color="#2F113D"/>
<stop offset="0.51" stop-color="#1B0A23"/>
<stop offset="0.67" stop-color="#0C040F"/>
<stop offset="0.83" stop-color="#030104"/>
<stop offset="1"/>
</radialGradient>
<radialGradient id="paint63_radial_1810_769" cx="0" cy="0" r="1" gradientUnits="userSpaceOnUse" gradientTransform="translate(-14585.4 -8781.84) rotate(73.9727) scale(8.21361 16.255)">
<stop stop-color="#742A97"/>
<stop offset="0.04" stop-color="#6A268A"/>
<stop offset="0.19" stop-color="#4A1B60"/>
<stop offset="0.35" stop-color="#2F113D"/>
<stop offset="0.51" stop-color="#1B0A23"/>
<stop offset="0.67" stop-color="#0C040F"/>
<stop offset="0.83" stop-color="#030104"/>
<stop offset="1"/>
</radialGradient>
<linearGradient id="paint64_linear_1810_769" x1="116.227" y1="68.7715" x2="132.206" y2="60.9898" gradientUnits="userSpaceOnUse">
<stop stop-color="#9F79C8"/>
<stop offset="0.14" stop-color="#A580CB"/>
<stop offset="0.33" stop-color="#B492D3"/>
<stop offset="0.55" stop-color="#CDB0E1"/>
<stop offset="0.58" stop-color="#D1B4E3"/>
<stop offset="0.76" stop-color="#DBC4E9"/>
<stop offset="1" stop-color="#EBDEF3"/>
</linearGradient>
<linearGradient id="paint65_linear_1810_769" x1="4142.06" y1="3610.91" x2="7389.15" y2="1223.47" gradientUnits="userSpaceOnUse">
<stop stop-color="#9F79C8"/>
<stop offset="0.14" stop-color="#A580CB"/>
<stop offset="0.33" stop-color="#B492D3"/>
<stop offset="0.55" stop-color="#CDB0E1"/>
<stop offset="0.58" stop-color="#D1B4E3"/>
<stop offset="0.76" stop-color="#DBC4E9"/>
<stop offset="1" stop-color="#EBDEF3"/>
</linearGradient>
<linearGradient id="paint66_linear_1810_769" x1="7605.43" y1="554.007" x2="7211.53" y2="1548.87" gradientUnits="userSpaceOnUse">
<stop stop-color="#9F79C8"/>
<stop offset="0.14" stop-color="#A580CB"/>
<stop offset="0.33" stop-color="#B492D3"/>
<stop offset="0.55" stop-color="#CDB0E1"/>
<stop offset="0.58" stop-color="#D1B4E3"/>
<stop offset="0.76" stop-color="#DBC4E9"/>
<stop offset="1" stop-color="#EBDEF3"/>
</linearGradient>
<clipPath id="clip0_1810_769">
<rect width="160" height="170" fill="white" transform="translate(26 25)"/>
</clipPath>
</defs>
</svg>
